<svg width="200" height="200" viewBox="0 0 200 200" fill="none" xmlns="http://www.w3.org/2000/svg">
<path fill-rule="evenodd" clip-rule="evenodd" d="M163 16.6667C158.977 16.6639 155.012 17.6322 151.444 19.4892C147.875 21.3462 144.807 24.0371 142.5 27.3333C138.686 32.7905 133.269 36.926 127 39.1667L52.8333 65.6667C52.0125 65.9439 51.2984 66.4701 50.7906 67.1721C50.2828 67.8741 50.0064 68.7169 50 69.5833V153.667C50.0182 159.224 51.8879 164.618 55.3137 168.994C58.7394 173.371 63.5259 176.481 68.9167 177.833L74.0833 179.167C87.1667 182.5 100.333 174.5 103.667 161.5C103.934 160.443 104.423 159.456 105.102 158.604C105.781 157.751 106.634 157.053 107.604 156.557C108.574 156.06 109.639 155.775 110.727 155.723C111.816 155.67 112.903 155.85 113.917 156.25L133.583 164.083C137.083 166.333 140.167 169.25 142.5 172.667C144.807 175.963 147.875 178.654 151.444 180.511C155.012 182.368 158.977 183.336 163 183.333H170.833C177.75 183.333 183.333 177.75 183.333 170.833V29.1667C183.333 22.25 177.75 16.6667 170.833 16.6667H163ZM91.9167 148.333L66.6667 139.167V153.583C66.6681 155.444 67.2925 157.251 68.4403 158.716C69.5881 160.181 71.1933 161.22 73 161.667L78.1667 162.917C82.3333 164 86.5 161.5 87.5 157.333C88.3333 153.917 89.9167 150.833 91.9167 148.167V148.333Z" fill="white"/>
<path d="M16.6667 83.3333C16.6667 74.1667 24.1667 66.6667 33.3333 66.6667H37.5C39.8333 66.6667 41.6667 68.5 41.6667 70.8333V129.167C41.6667 130.272 41.2277 131.332 40.4463 132.113C39.6649 132.894 38.6051 133.333 37.5 133.333H33.3333C28.9131 133.333 24.6738 131.577 21.5482 128.452C18.4226 125.326 16.6667 121.087 16.6667 116.667V83.3333Z" fill="white"/>
</svg>
