<svg width="200" height="200" viewBox="0 0 200 200" fill="none" xmlns="http://www.w3.org/2000/svg">
<path d="M44.1666 77.5C45.7244 75.9731 47.8187 75.1179 50 75.1179C52.1813 75.1179 54.2756 75.9731 55.8333 77.5L100 121.583L144.167 77.4167C144.92 76.5501 145.844 75.8485 146.882 75.356C147.919 74.8635 149.047 74.5907 150.195 74.5547C151.342 74.5187 152.485 74.7203 153.551 75.1468C154.617 75.5734 155.584 76.2156 156.39 77.0333C157.196 77.851 157.825 78.8265 158.236 79.8986C158.647 80.9707 158.833 82.1162 158.78 83.2633C158.728 84.4104 158.439 85.5343 157.932 86.5645C157.425 87.5947 156.711 88.509 155.833 89.25L105.833 139.25C104.276 140.777 102.181 141.632 100 141.632C97.8187 141.632 95.7244 140.777 94.1667 139.25L44.1666 89.25C43.3856 88.4753 42.7656 87.5536 42.3425 86.5381C41.9195 85.5226 41.7017 84.4334 41.7017 83.3333C41.7017 82.2332 41.9195 81.144 42.3425 80.1285C42.7656 79.113 43.3856 78.1914 44.1666 77.4167V77.5Z" fill="white"/>
</svg>
