<svg width="200" height="200" viewBox="0 0 200 200" fill="none" xmlns="http://www.w3.org/2000/svg">
<path d="M157.583 108.167C165.821 113.629 172.052 121.629 175.331 130.954C178.609 140.278 178.757 150.418 175.75 159.833C174.917 162.583 175 165.5 176.583 167.833L183.5 178.833C184.307 180.091 184.761 181.543 184.814 183.037C184.867 184.531 184.518 186.012 183.802 187.324C183.086 188.636 182.031 189.732 180.746 190.496C179.461 191.26 177.995 191.664 176.5 191.667H130.667C118.318 191.845 106.402 187.121 97.5298 178.53C88.6576 169.939 83.5526 158.181 83.3333 145.833C83.5526 133.485 88.6576 121.728 97.5298 113.137C106.402 104.545 118.318 99.8216 130.667 100C140.667 100 150 103 157.583 108.167Z" fill="white"/>
<path d="M160.333 90.5C163 91.8333 166.333 90.3333 166.5 87.3333L166.667 83.3333C166.667 46.5 133.083 16.6667 91.6667 16.6667C50.25 16.6667 16.6667 46.5 16.6667 83.3333C16.6667 95.8333 20.5833 107.583 27.3333 117.583C28.5 119.333 28.3333 121.667 26.8333 123.167L14.25 135.75C13.0846 136.906 12.2864 138.379 11.9554 139.987C11.6244 141.594 11.7755 143.264 12.3896 144.786C13.0037 146.308 14.0536 147.614 15.4074 148.542C16.7613 149.47 18.359 149.977 20 150H62.5C63.5906 149.978 64.6291 149.53 65.3926 148.751C66.156 147.971 66.5836 146.924 66.5833 145.833C66.5833 110.833 95.75 83.3333 130.583 83.3333C141.25 83.3333 151.417 85.8333 160.25 90.5H160.333Z" fill="white"/>
</svg>
