<svg width="200" height="200" viewBox="0 0 200 200" fill="none" xmlns="http://www.w3.org/2000/svg">
<path fill-rule="evenodd" clip-rule="evenodd" d="M16.6666 41.6667C16.6666 35.0363 19.3005 28.6774 23.989 23.989C28.6774 19.3006 35.0362 16.6667 41.6666 16.6667H158.333C164.964 16.6667 171.323 19.3006 176.011 23.989C180.699 28.6774 183.333 35.0363 183.333 41.6667V158.333C183.333 164.964 180.699 171.323 176.011 176.011C171.323 180.699 164.964 183.333 158.333 183.333H41.6666C35.0362 183.333 28.6774 180.699 23.989 176.011C19.3005 171.323 16.6666 164.964 16.6666 158.333V41.6667ZM127.917 109.417L157.083 148.333C160.167 152.5 157.25 158.333 152.083 158.333H48.4166C47.2341 158.342 46.0733 158.015 45.0691 157.391C44.065 156.766 43.2587 155.869 42.7438 154.805C42.2289 153.74 42.0267 152.551 42.1605 151.376C42.2944 150.201 42.7588 149.088 43.5 148.167L59 128.833C60.1712 127.373 61.6554 126.195 63.3429 125.386C65.0305 124.576 66.8783 124.156 68.75 124.156C70.6217 124.156 72.4695 124.576 74.157 125.386C75.8445 126.195 77.3287 127.373 78.5 128.833L82.6666 134.167L101.25 109.417C102.802 107.347 104.815 105.667 107.13 104.51C109.444 103.352 111.996 102.75 114.583 102.75C117.171 102.75 119.723 103.352 122.037 104.51C124.351 105.667 126.364 107.347 127.917 109.417ZM85 49.8333C86.9166 42.25 77.6666 36.9167 72.0833 42.3333C70.6353 43.7483 68.6912 44.5406 66.6666 44.5406C64.6421 44.5406 62.6979 43.7483 61.25 42.3333C55.6666 36.9167 46.4166 42.25 48.3333 49.8333C48.8204 51.7879 48.5274 53.8554 47.5163 55.5976C46.5052 57.3399 44.8554 58.62 42.9166 59.1667C35.4166 61.3333 35.4166 72 42.9166 74.1667C46.9166 75.3333 49.3333 79.4167 48.3333 83.5C46.4166 91.0833 55.6666 96.4167 61.25 91C62.6979 89.585 64.6421 88.7928 66.6666 88.7928C68.6912 88.7928 70.6353 89.585 72.0833 91C77.6666 96.4167 86.9166 91.0833 85 83.5C84.5128 81.5454 84.8059 79.4779 85.817 77.7357C86.8281 75.9935 88.4778 74.7134 90.4166 74.1667C97.9166 72 97.9166 61.3333 90.4166 59.1667C88.4778 58.62 86.8281 57.3399 85.817 55.5976C84.8059 53.8554 84.5128 51.7879 85 49.8333Z" fill="white"/>
</svg>
