<svg width="200" height="200" viewBox="0 0 200 200" fill="none" xmlns="http://www.w3.org/2000/svg">
<path fill-rule="evenodd" clip-rule="evenodd" d="M125 16.6667C131.63 16.6667 137.989 19.3006 142.678 23.989C147.366 28.6774 150 35.0363 150 41.6667V141.667H45.8333C42.5181 141.667 39.3387 142.984 36.9945 145.328C34.6503 147.672 33.3333 150.851 33.3333 154.167C33.3333 157.482 34.6503 160.661 36.9945 163.005C39.3387 165.35 42.5181 166.667 45.8333 166.667H162.5C163.605 166.667 164.665 166.228 165.446 165.446C166.228 164.665 166.667 163.605 166.667 162.5V41.6667H175C177.21 41.6667 179.33 42.5446 180.893 44.1074C182.455 45.6702 183.333 47.7899 183.333 50V175C183.333 177.21 182.455 179.33 180.893 180.893C179.33 182.455 177.21 183.333 175 183.333H41.6667C35.0362 183.333 28.6774 180.699 23.989 176.011C19.3006 171.323 16.6667 164.964 16.6667 158.333V41.6667C16.6667 35.0363 19.3006 28.6774 23.989 23.989C28.6774 19.3006 35.0362 16.6667 41.6667 16.6667H125ZM122.5 64.1667C123.704 62.5619 124.288 60.5768 124.146 58.5759C124.003 56.575 123.144 54.6925 121.726 53.2741C120.307 51.8557 118.425 50.9965 116.424 50.8543C114.423 50.7121 112.438 51.2964 110.833 52.5L75 88.1667L55.8333 69C54.2296 67.6453 52.1736 66.9458 50.0765 67.0414C47.9793 67.1369 45.9955 68.0205 44.5216 69.5154C43.0477 71.0104 42.1924 73.0065 42.1266 75.1048C42.0608 77.2031 42.7893 79.249 44.1667 80.8333L69.1667 105.833C70.7244 107.36 72.8187 108.215 75 108.215C77.1813 108.215 79.2756 107.36 80.8333 105.833L122.5 64.1667Z" fill="white"/>
</svg>
