<svg width="200" height="200" viewBox="0 0 200 200" fill="none" xmlns="http://www.w3.org/2000/svg">
<path fill-rule="evenodd" clip-rule="evenodd" d="M91.5833 26.3333C91.7584 25.2445 91.7174 24.1318 91.4624 23.0588C91.2075 21.9858 90.7437 20.9735 90.0976 20.0797C89.4514 19.1859 88.6356 18.4282 87.6966 17.8497C86.7576 17.2713 85.7139 16.8834 84.625 16.7083C83.5361 16.5332 82.4234 16.5743 81.3504 16.8293C80.2774 17.0842 79.2652 17.548 78.3714 18.1941C77.4776 18.8402 76.7199 19.6561 76.1414 20.5951C75.563 21.5341 75.1751 22.5778 75 23.6667L67.9167 66.6667H33.3333C31.1232 66.6667 29.0036 67.5446 27.4408 69.1074C25.878 70.6702 25 72.7899 25 75C25 77.2101 25.878 79.3298 27.4408 80.8926C29.0036 82.4554 31.1232 83.3333 33.3333 83.3333H65.1667L59.5833 116.667H25C22.7899 116.667 20.6703 117.545 19.1074 119.107C17.5446 120.67 16.6667 122.79 16.6667 125C16.6667 127.21 17.5446 129.33 19.1074 130.893C20.6703 132.455 22.7899 133.333 25 133.333H56.8333L50.1667 173.667C49.963 175.774 50.5688 177.879 51.8612 179.556C53.1536 181.233 55.0357 182.355 57.1252 182.694C59.2148 183.033 61.3552 182.565 63.1118 181.384C64.8684 180.202 66.1096 178.397 66.5833 176.333L73.75 133.333H115.167L108.5 173.667C108.296 175.774 108.902 177.879 110.195 179.556C111.487 181.233 113.369 182.355 115.459 182.694C117.548 183.033 119.688 182.565 121.445 181.384C123.202 180.202 124.443 178.397 124.917 176.333L132.083 133.333H166.667C168.877 133.333 170.996 132.455 172.559 130.893C174.122 129.33 175 127.21 175 125C175 122.79 174.122 120.67 172.559 119.107C170.996 117.545 168.877 116.667 166.667 116.667H134.833L140.417 83.3333H175C177.21 83.3333 179.33 82.4554 180.893 80.8926C182.455 79.3298 183.333 77.2101 183.333 75C183.333 72.7899 182.455 70.6702 180.893 69.1074C179.33 67.5446 177.21 66.6667 175 66.6667H143.167L149.833 26.3333C150.088 25.2225 150.113 24.0712 149.905 22.9506C149.698 21.8299 149.262 20.7638 148.626 19.8181C147.99 18.8723 147.167 18.0671 146.208 17.4522C145.248 16.8373 144.172 16.4257 143.047 16.243C141.923 16.0603 140.772 16.1102 139.667 16.3898C138.562 16.6694 137.526 17.1726 136.624 17.8684C135.721 18.5642 134.971 19.4378 134.419 20.4351C133.868 21.4324 133.526 22.5322 133.417 23.6667L126.25 66.6667H84.8333L91.5 26.3333H91.5833ZM117.917 116.667L123.5 83.3333H82.0833L76.5 116.667H117.917Z" fill="white"/>
</svg>
