<svg width="200" height="200" viewBox="0 0 200 200" fill="none" xmlns="http://www.w3.org/2000/svg">
<path d="M100 23.4167C98.4479 21.8553 97.5767 19.7432 97.5767 17.5417C97.5767 15.3401 98.4479 13.228 100 11.6667L103 8.66667C104.561 7.11457 106.673 6.24339 108.875 6.24339C111.077 6.24339 113.189 7.11457 114.75 8.66667L191.417 85.3333C192.944 86.8911 193.799 88.9854 193.799 91.1667C193.799 93.3479 192.944 95.4423 191.417 97L185.583 102.833C184.208 104.283 182.357 105.19 180.368 105.389C178.379 105.588 176.386 105.065 174.75 103.917L95.25 47.9167C94.2051 47.1899 93.3406 46.2333 92.7227 45.1205C92.1049 44.0077 91.7502 42.7681 91.6858 41.4969C91.6215 40.2257 91.8491 38.9567 92.3514 37.7871C92.8537 36.6176 93.6172 35.5786 94.5833 34.75L102.917 26.4167L100 23.3333V23.4167ZM100 176.667C101.552 178.228 102.423 180.34 102.423 182.542C102.423 184.743 101.552 186.855 100 188.417L97.0833 191.333C95.522 192.885 93.4099 193.757 91.2083 193.757C89.0068 193.757 86.8947 192.885 85.3333 191.333L8.66668 114.75C7.11459 113.189 6.24341 111.077 6.24341 108.875C6.24341 106.673 7.11459 104.561 8.66668 103L14.5 97.1667C15.8864 95.7298 17.7427 94.8384 19.731 94.6549C21.7192 94.4714 23.7073 95.0078 25.3333 96.1667L104.833 152.167C105.873 152.9 106.731 153.862 107.341 154.978C107.951 156.095 108.298 157.336 108.354 158.607C108.411 159.878 108.175 161.145 107.666 162.311C107.157 163.477 106.387 164.511 105.417 165.333L97.0833 173.667L100 176.667ZM130.5 140C129.278 141.827 127.384 143.097 125.23 143.534C123.076 143.971 120.837 143.539 119 142.333L48.25 95.1667C47.2745 94.5899 46.4268 93.8203 45.7589 92.9048C45.0909 91.9893 44.6167 90.9472 44.3653 89.8422C44.1138 88.7372 44.0904 87.5925 44.2964 86.4781C44.5025 85.3637 44.9336 84.3031 45.5635 83.361C46.1935 82.4189 47.0089 81.6153 47.9601 80.9991C48.9112 80.383 49.978 79.9673 51.0953 79.7775C52.2125 79.5877 53.3568 79.6278 54.458 79.8953C55.5592 80.1628 56.5943 80.6521 57.5 81.3333L128.25 128.417C129.159 129.029 129.939 129.814 130.545 130.728C131.15 131.641 131.569 132.666 131.778 133.742C131.987 134.818 131.982 135.924 131.763 136.998C131.543 138.072 131.114 139.092 130.5 140ZM142.5 118.75C143.406 119.431 144.441 119.921 145.542 120.188C146.643 120.456 147.788 120.496 148.905 120.306C150.022 120.116 151.089 119.7 152.04 119.084C152.991 118.468 153.807 117.664 154.436 116.722C155.066 115.78 155.498 114.72 155.704 113.605C155.91 112.491 155.886 111.346 155.635 110.241C155.383 109.136 154.909 108.094 154.241 107.179C153.573 106.263 152.726 105.493 151.75 104.917L81.0833 57.75C79.2497 56.666 77.0705 56.3253 74.9934 56.7979C72.9164 57.2706 71.0992 58.5207 69.9152 60.2914C68.7311 62.0621 68.2701 64.2191 68.6268 66.3191C68.9836 68.4192 70.131 70.3029 71.8333 71.5833L142.583 118.75H142.5Z" fill="white"/>
</svg>
