<svg width="200" height="200" viewBox="0 0 200 200" fill="none" xmlns="http://www.w3.org/2000/svg">
<path d="M100 25C100 22.7899 99.122 20.6702 97.5592 19.1074C95.9964 17.5446 93.8768 16.6667 91.6667 16.6667H91.1667C90.01 16.6588 88.8644 16.8919 87.8027 17.351C86.741 17.8101 85.7865 18.4852 85 19.3333L49.3334 58.3333H25C22.7899 58.3333 20.6703 59.2113 19.1075 60.7741C17.5447 62.3369 16.6667 64.4565 16.6667 66.6667V133.333C16.6667 135.543 17.5447 137.663 19.1075 139.226C20.6703 140.789 22.7899 141.667 25 141.667H49.3334L85 180.667C85.7865 181.515 86.741 182.19 87.8027 182.649C88.8644 183.108 90.01 183.341 91.1667 183.333H91.6667C93.8768 183.333 95.9964 182.455 97.5592 180.893C99.122 179.33 100 177.21 100 175V25ZM125.833 172.917C121 174.083 116.667 170.167 116.667 165.25V165C116.667 160.833 119.75 157.333 123.75 156.25C136.072 152.865 146.942 145.528 154.69 135.366C162.437 125.204 166.633 112.779 166.633 100C166.633 87.2214 162.437 74.7963 154.69 64.634C146.942 54.4718 136.072 47.1346 123.75 43.75C121.771 43.274 120.005 42.1586 118.724 40.5766C117.443 38.9947 116.72 37.0346 116.667 35V34.75C116.667 29.75 121 25.9167 125.833 27.0833C142.204 31.0245 156.772 40.3599 167.192 53.5866C177.613 66.8133 183.279 83.1617 183.279 100C183.279 116.838 177.613 133.187 167.192 146.413C156.772 159.64 142.204 168.976 125.833 172.917Z" fill="white"/>
<path d="M126.333 137.583C121.583 139.917 116.667 135.917 116.667 130.667V129.5C116.667 125.917 119 122.833 121.917 121C125.425 118.734 128.31 115.624 130.308 111.956C132.305 108.287 133.352 104.177 133.352 100C133.352 95.823 132.305 91.7126 130.308 88.0442C128.31 84.3758 125.425 81.2664 121.917 79C119 77.0833 116.667 74 116.667 70.5V69.3333C116.667 64.0833 121.583 60.1667 126.333 62.4167C133.423 65.8101 139.408 71.1397 143.598 77.79C147.788 84.4403 150.011 92.14 150.011 100C150.011 107.86 147.788 115.56 143.598 122.21C139.408 128.86 133.423 134.19 126.333 137.583Z" fill="white"/>
</svg>
