<svg width="200" height="200" viewBox="0 0 200 200" fill="none" xmlns="http://www.w3.org/2000/svg">
<path fill-rule="evenodd" clip-rule="evenodd" d="M100 191.667C124.312 191.667 147.627 182.009 164.818 164.818C182.009 147.627 191.667 124.312 191.667 100C191.667 75.6885 182.009 52.3727 164.818 35.1819C147.627 17.9911 124.312 8.33334 100 8.33334C75.6885 8.33334 52.3727 17.9911 35.1819 35.1819C17.9911 52.3727 8.33334 75.6885 8.33334 100C8.33334 124.312 17.9911 147.627 35.1819 164.818C52.3727 182.009 75.6885 191.667 100 191.667ZM97.6667 58.3333C89.5 58.3333 82.5833 62.25 78.75 67.8333C78.138 68.7509 77.3499 69.5378 76.4315 70.1485C75.5131 70.7592 74.4825 71.1815 73.3997 71.3909C72.3168 71.6004 71.2031 71.5928 70.1232 71.3685C69.0433 71.1443 68.0186 70.7079 67.1087 70.0847C66.1987 69.4615 65.4214 68.6639 64.822 67.738C64.2226 66.8122 63.813 65.7766 63.6168 64.6912C63.4207 63.6058 63.442 62.4924 63.6794 61.4153C63.9168 60.3382 64.3657 59.319 65 58.4167C68.6775 53.184 73.5731 48.9247 79.2643 46.0066C84.9555 43.0884 91.2713 41.5989 97.6667 41.6667C118.5 41.6667 136.417 57.3333 136.417 78.1667C136.417 95.6667 123.583 109.583 107.083 113.5L108.25 121.833C108.453 123.975 107.82 126.112 106.484 127.798C105.148 129.483 103.211 130.587 101.08 130.877C98.9485 131.168 96.7873 130.623 95.0484 129.357C93.3095 128.091 92.1276 126.201 91.75 124.083L89.4167 107.417C89.2497 106.236 89.3382 105.032 89.6762 103.889C90.0142 102.745 90.5939 101.687 91.376 100.786C92.1581 99.8853 93.1245 99.1631 94.2097 98.6681C95.295 98.1731 96.4739 97.9169 97.6667 97.9167C110.5 97.9167 119.75 88.4167 119.75 78.0833C119.75 67.8333 110.583 58.3333 97.6667 58.3333ZM108.333 149C108.457 150.305 108.306 151.622 107.891 152.866C107.476 154.11 106.805 155.253 105.923 156.223C105.04 157.193 103.965 157.967 102.766 158.498C101.566 159.028 100.27 159.302 98.9583 159.302C97.6471 159.302 96.3503 159.028 95.1511 158.498C93.9518 157.967 92.8765 157.193 91.9939 156.223C91.1114 155.253 90.4411 154.11 90.026 152.866C89.6109 151.622 89.4601 150.305 89.5833 149C89.8036 146.666 90.8865 144.498 92.6203 142.92C94.3541 141.343 96.6141 140.468 98.9583 140.468C101.303 140.468 103.563 141.343 105.296 142.92C107.03 144.498 108.113 146.666 108.333 149Z" fill="white"/>
</svg>
